<mxfile host="app.diagrams.net" modified="2024-01-25T20:14:12.343Z" agent="Mozilla/5.0 (Windows NT 10.0; Win64; x64) AppleWebKit/537.36 (KHTML, like Gecko) Chrome/120.0.0.0 Safari/537.36" version="22.1.22" etag="UsMMewKkR4Tok1Y14sl0" type="github">
  <diagram name="Page-1" id="SJ0gPLfp_xMIWYhFH4Qs">
    <mxGraphModel>
      <root>
        <mxCell id="0" />
        <mxCell id="1" parent="0" />
      </root>
    </mxGraphModel>
  </diagram>
</mxfile>
